# xmcd
#
# Track frame offsets:
#	150
#	8253
#	20623
#	35215
#	76581
#	88645
#	93155
#	118669
#	135919
#	183276
#	190934
#	204178
#	231922
#	259013
#	296402
#	310559
#
# Disc length: 4447 seconds
#
# Revision: 1
# Processed by: cddbd v1.5.2PL0 Copyright (c) Steve Scherf et al.
# Submitted via: audiograbber 1.83.01
#
DISCID=bb115d10
DTITLE=Grateful Dead - 68-02-03 Crystal Ballroom, Portland OR
DYEAR=1900
DGENRE=
TTITLE0=Cryptical Envelopment
TTITLE1=The Other One
TTITLE2=Cryptical Envelopment
TTITLE3=New Potato Caboose
TTITLE4=Born Cross-Eyed
TTITLE5=Jam
TTITLE6=Dark Star
TTITLE7=China Cat Sunflower
TTITLE8=The Eleven > Jam > Feedback
TTITLE9=Cryptical Envelopment
TTITLE10=The Other One
TTITLE11=Cryptical Envelopment
TTITLE12=Clementine
TTITLE13=New Potato Caboose
TTITLE14=Born Cross-Eyed
TTITLE15=Spanish Jam
EXTD=
EXTT0=
EXTT1=
EXTT2=
EXTT3=
EXTT4=
EXTT5=
EXTT6=
EXTT7=
EXTT8=
EXTT9=
EXTT10=
EXTT11=
EXTT12=
EXTT13=
EXTT14=
EXTT15=
PLAYORDER=
